<svg width="30" height="30" viewBox="0 0 30 30" fill="none" xmlns="http://www.w3.org/2000/svg">
<path d="M5 26.25V23.75H25V26.25H5ZM10 21.25C8.625 21.25 7.44792 20.7604 6.46875 19.7812C5.48958 18.8021 5 17.625 5 16.25V3.75H25C25.6875 3.75 26.276 3.99479 26.7656 4.48438C27.2552 4.97396 27.5 5.5625 27.5 6.25V10C27.5 10.6875 27.2552 11.276 26.7656 11.7656C26.276 12.2552 25.6875 12.5 25 12.5H22.5V16.25C22.5 17.625 22.0104 18.8021 21.0312 19.7812C20.0521 20.7604 18.875 21.25 17.5 21.25H10ZM10 18.75H17.5C18.1875 18.75 18.776 18.5052 19.2656 18.0156C19.7552 17.526 20 16.9375 20 16.25V6.25H7.5V16.25C7.5 16.9375 7.74479 17.526 8.23438 18.0156C8.72396 18.5052 9.3125 18.75 10 18.75ZM22.5 10H25V6.25H22.5V10ZM10 18.75H7.5H20H10Z" fill="white"/>
</svg>
