<svg width="30" height="30" viewBox="0 0 30 30" fill="none" xmlns="http://www.w3.org/2000/svg">
<path d="M22.27 8.04497L21.9068 8.75777L22.27 8.04497ZM24.455 10.23L23.7422 10.5932L24.455 10.23ZM5.54497 10.23L6.25777 10.5932L5.54497 10.23ZM7.73005 8.04497L8.09324 8.75777L7.73005 8.04497ZM6.36502 27.2275L6.72822 26.5147L6.36502 27.2275ZM5.27248 26.135L5.98529 25.7718L5.27248 26.135ZM23.635 27.2275L23.2718 26.5147L23.635 27.2275ZM24.7275 26.135L24.0147 25.7718L24.7275 26.135ZM15.8 2.5C15.8 2.05817 15.4418 1.7 15 1.7C14.5582 1.7 14.2 2.05817 14.2 2.5L15.8 2.5ZM14.2 7.5C14.2 7.94183 14.5582 8.3 15 8.3C15.4418 8.3 15.8 7.94183 15.8 7.5L14.2 7.5ZM25 14.55C25.4418 14.55 25.8 14.1918 25.8 13.75C25.8 13.3082 25.4418 12.95 25 12.95L25 14.55ZM5 12.95C4.55817 12.95 4.2 13.3082 4.2 13.75C4.2 14.1918 4.55817 14.55 5 14.55L5 12.95ZM15.8 21.875C15.8 21.4332 15.4418 21.075 15 21.075C14.5582 21.075 14.2 21.4332 14.2 21.875L15.8 21.875ZM5.8 23.5L5.8 15.5L4.2 15.5L4.2 23.5L5.8 23.5ZM13 8.3L17 8.3L17 6.7L13 6.7L13 8.3ZM24.2 15.5L24.2 23.5L25.8 23.5L25.8 15.5L24.2 15.5ZM17 8.3C18.4133 8.3 19.4252 8.30062 20.2188 8.36546C21.0031 8.42954 21.5036 8.55233 21.9068 8.75777L22.6331 7.33216C21.9668 6.99264 21.2324 6.84294 20.3491 6.77078C19.4752 6.69938 18.3869 6.7 17 6.7L17 8.3ZM25.8 15.5C25.8 14.1131 25.8006 13.0248 25.7292 12.1509C25.6571 11.2676 25.5074 10.5332 25.1678 9.86686L23.7422 10.5932C23.9477 10.9964 24.0705 11.4969 24.1345 12.2812C24.1994 13.0748 24.2 14.0867 24.2 15.5L25.8 15.5ZM21.9068 8.75777C22.697 9.16044 23.3396 9.80296 23.7422 10.5932L25.1678 9.86686C24.6118 8.77551 23.7245 7.88823 22.6331 7.33216L21.9068 8.75777ZM5.8 15.5C5.8 14.0867 5.80062 13.0748 5.86546 12.2812C5.92954 11.4969 6.05233 10.9964 6.25777 10.5932L4.83216 9.86686C4.49264 10.5332 4.34294 11.2676 4.27078 12.1509C4.19938 13.0248 4.2 14.1131 4.2 15.5L5.8 15.5ZM13 6.7C11.6131 6.7 10.5248 6.69938 9.65086 6.77078C8.76763 6.84294 8.03321 6.99264 7.36685 7.33216L8.09324 8.75777C8.49644 8.55233 8.99687 8.42954 9.78115 8.36546C10.5748 8.30062 11.5867 8.3 13 8.3L13 6.7ZM6.25777 10.5932C6.66044 9.80296 7.30296 9.16044 8.09324 8.75777L7.36685 7.33216C6.27551 7.88823 5.38823 8.77552 4.83216 9.86686L6.25777 10.5932ZM9 26.7C8.28673 26.7 7.7999 26.6994 7.42315 26.6686C7.05574 26.6386 6.86403 26.5839 6.72822 26.5147L6.00183 27.9403C6.4008 28.1436 6.82651 28.2252 7.29286 28.2633C7.74987 28.3006 8.31314 28.3 9 28.3L9 26.7ZM4.2 23.5C4.2 24.1869 4.19938 24.7501 4.23672 25.2071C4.27482 25.6735 4.3564 26.0992 4.55968 26.4982L5.98529 25.7718C5.91609 25.636 5.86142 25.4443 5.8314 25.0769C5.80062 24.7001 5.8 24.2133 5.8 23.5L4.2 23.5ZM6.72822 26.5147C6.40834 26.3517 6.14827 26.0917 5.98529 25.7718L4.55968 26.4982C4.87606 27.1191 5.3809 27.6239 6.00183 27.9403L6.72822 26.5147ZM21 28.3C21.6869 28.3 22.2501 28.3006 22.7071 28.2633C23.1735 28.2252 23.5992 28.1436 23.9982 27.9403L23.2718 26.5147C23.136 26.5839 22.9443 26.6386 22.5768 26.6686C22.2001 26.6994 21.7133 26.7 21 26.7L21 28.3ZM24.2 23.5C24.2 24.2133 24.1994 24.7001 24.1686 25.0768C24.1386 25.4443 24.0839 25.636 24.0147 25.7718L25.4403 26.4982C25.6436 26.0992 25.7252 25.6735 25.7633 25.2071C25.8006 24.7501 25.8 24.1869 25.8 23.5L24.2 23.5ZM23.9982 27.9403C24.6191 27.6239 25.1239 27.1191 25.4403 26.4982L24.0147 25.7718C23.8517 26.0917 23.5917 26.3517 23.2718 26.5147L23.9982 27.9403ZM14.2 2.5L14.2 7.5L15.8 7.5L15.8 2.5L14.2 2.5ZM25 12.95L5 12.95L5 14.55L25 14.55L25 12.95ZM21 26.7L15 26.7L15 28.3L21 28.3L21 26.7ZM15 26.7L9 26.7L9 28.3L15 28.3L15 26.7ZM15.8 27.5L15.8 21.875L14.2 21.875L14.2 27.5L15.8 27.5Z" fill="#FF5A44"/>
</svg>
